<svg width="14" height="13" viewBox="0 0 14 13" fill="none" xmlns="http://www.w3.org/2000/svg">
<path d="M11.0613 5.66671L13.9946 13H12.558L11.7573 11H9.03063L8.23129 13H6.79529L9.72796 5.66671H11.0613ZM5.39463 0.333374V1.66671H9.39463V3.00004L8.08276 3.00044C7.55629 4.57748 6.72716 6.00384 5.66896 7.20071C6.15089 7.63051 6.67263 8.01177 7.22629 8.33864L6.72589 9.59037C6.01043 9.18544 5.34092 8.70164 4.7277 8.14997C3.53731 9.22137 2.13405 10.0369 0.593899 10.5156L0.236339 9.22951C1.55363 8.81357 2.75825 8.11584 3.78824 7.20144C3.03647 6.35211 2.40045 5.38661 1.90624 4.33356L3.39919 4.33362C3.77475 5.02594 4.22115 5.66891 4.72774 6.25137C5.54683 5.31009 6.20829 4.21081 6.66763 3.00071L0.0612926 3.00004V1.66671H4.06129V0.333374H5.39463ZM10.3946 7.59017L9.56329 9.66671H11.2246L10.3946 7.59017Z" fill="black"/>
</svg>
