<svg width="161" height="54" viewBox="0 0 161 54" fill="none" xmlns="http://www.w3.org/2000/svg">
<path d="M49.0623 44.8426C49.0623 44.8426 49.6149 43.8832 50.067 42.7932C50.4387 41.899 50.7853 40.2514 51.1721 39.1814C51.9055 37.147 52.5987 35.8008 52.5987 35.8008C52.5987 35.8008 50.8255 36.5643 49.2331 38.443C48.1983 39.6637 47.6558 41.8036 46.7265 43.1548C45.33 45.1842 43.7427 46.2542 43.7427 46.2542C43.7427 46.2542 49.3888 47.947 53.0357 46.9976C58.2599 45.6363 59.7417 41.7734 59.7417 41.7734C59.7417 41.7734 56.562 43.5517 53.9097 44.2248C51.2424 44.8929 49.0623 44.8426 49.0623 44.8426Z" fill="#096939"/>
<path d="M113.435 2.47656C112.451 2.47656 111.657 3.27024 111.657 4.2548V16.3307H103.047C101.972 16.3307 101.169 16.9285 100.822 17.6669L99.2597 20.5854V2.47656H90.1777C89.1981 2.47656 88.3994 3.27024 88.3994 4.2548V41.1406H97.4815C98.461 41.1406 99.2597 40.3419 99.2597 39.3623V25.8196H111.657V41.1406H120.739C121.719 41.1406 122.517 40.3419 122.517 39.3623V2.47656H113.435Z" fill="#096939"/>
<path d="M151.406 2.47656C150.422 2.47656 149.628 3.27024 149.628 4.2548V16.3307H141.018C139.943 16.3307 139.139 16.9285 138.793 17.6669L137.231 20.5854V2.47656H128.143C127.164 2.47656 126.365 3.27024 126.365 4.2548V41.1406H135.447C136.427 41.1406 137.226 40.3419 137.226 39.3623V25.8196H149.623V41.1406H158.705C159.684 41.1406 160.483 40.3419 160.483 39.3623V2.47656H151.406Z" fill="#096939"/>
<path d="M84.6117 39.3873C84.6117 40.3718 83.813 41.1655 82.8335 41.1655H73.3496V13.849C73.3496 12.8695 74.0177 12.3119 75.1278 12.0708L84.6117 11.0059V39.3873Z" fill="#096939"/>
<path d="M73.3496 4.2548C73.3496 3.27526 74.1433 2.47656 75.1278 2.47656H84.6117V7.13312C84.6117 8.11768 83.9889 8.61498 82.8335 8.91135L73.3496 9.97628V4.2548Z" fill="#096939"/>
<path d="M41.3865 20.7461C41.3865 20.7461 40.0654 20.8968 40.0654 22.1225C40.0654 23.097 40.7888 23.6596 41.2911 23.7098C41.8386 23.7651 42.8785 23.3934 42.8785 22.1777C42.8785 20.7511 41.3865 20.7461 41.3865 20.7461Z" fill="#9F9745"/>
<path d="M52.458 23.8304C52.4379 24.0414 52.257 24.4382 52.1968 24.7045C52.0662 25.3575 51.9406 25.7443 51.7296 26.3872L51.6492 26.3471C51.6492 26.3471 51.4131 25.7995 51.0565 24.398C50.8957 23.7651 50.7099 22.8609 50.4989 21.9869C50.7551 21.9166 51.0916 21.801 51.3378 21.7608C52.3575 21.6001 52.3073 21.2686 52.3073 21.2686C52.3073 21.2686 52.4027 21.5499 52.257 21.9768C52.1114 22.4038 52.1817 22.9714 52.3173 23.1623C52.458 23.3532 52.4881 23.6245 52.458 23.8304ZM50.0619 20.4899C49.9966 20.3141 49.9313 20.1484 49.866 19.9977C48.9819 18.0788 47.6658 17.1193 47.6658 17.1193C47.6658 17.1193 46.41 16.0142 44.7875 15.8485C44.4409 15.8133 44.0892 15.8083 43.7476 15.8183H43.7527C43.7075 15.748 43.4111 14.7885 43.396 14.7484L43.2956 14.457C43.2956 14.457 43.1298 14.5926 43.0745 14.7936C43.0645 14.8388 43.3156 15.7882 43.3006 15.8434C42.9037 15.8786 42.5421 15.9288 42.2306 15.9841C42.2005 15.9087 42.1703 15.8434 42.1653 15.8233C42.0548 15.4968 41.9493 14.9392 41.9242 14.7534C41.8991 14.5625 42.0096 14.462 42.0347 14.3214L42.1955 13.814C42.2457 13.6834 42.2206 13.6834 42.4316 13.7337C42.6425 13.7889 42.9439 13.8191 42.9439 13.8191C42.9439 13.8191 43.0544 13.3368 42.8384 12.8847C42.6224 12.4226 42.5471 12.1564 42.5471 12.1564C42.5471 12.1564 42.5169 12.076 42.9188 11.7545C43.3207 11.438 44.476 10.6092 44.9834 10.2827C45.4957 9.96622 45.4405 9.99636 45.8976 9.72008C46.3447 9.4639 46.6662 9.11227 46.6662 9.11227C46.6662 9.11227 47.6005 9.96622 48.4544 11.0663C49.3084 12.1714 50.529 13.8844 50.6596 13.8341C50.8003 13.7789 50.6647 13.1409 50.8756 13.1108C51.0916 13.0907 51.4684 13.4373 51.7095 13.6834C51.9456 13.9195 52.1616 13.9547 52.1365 14.1355C52.1063 14.3264 52.2118 14.5876 52.031 14.5675C51.8351 14.5374 51.815 14.4068 51.6543 14.4068L51.3076 14.4269L51.172 14.7785L51.3076 15.2406C51.3277 15.3964 51.4382 15.964 51.5588 16.3859C51.6995 16.8179 51.9104 17.7573 51.9356 17.9683C51.9657 18.1843 51.9858 19.0684 52.0109 19.3346C52.036 19.6059 51.9858 20.2739 51.9858 20.2739L51.7145 20.4046C51.5086 20.51 51.2574 20.6758 51.0464 20.6457C50.8304 20.6155 50.4838 20.505 50.1422 20.4799C50.1372 20.4849 50.1071 20.4849 50.0619 20.4899ZM40.9296 8.22818C39.9199 5.66631 38.8399 4.67171 38.8399 4.67171C38.8399 4.67171 39.1062 4.40045 39.292 4.26483C39.4779 4.1292 39.6386 4.15934 39.6386 4.15934C39.6386 4.15934 40.2213 4.37031 42.2256 5.26948C44.2349 6.15859 44.8377 6.96734 45.0537 7.12808C45.2647 7.2838 45.1542 7.47469 45.1542 7.47469C45.1542 7.47469 45.3149 7.3692 45.2948 7.66055C45.2647 7.95692 44.8327 8.38892 44.2148 8.65013C43.602 8.92641 42.2356 9.39859 41.9443 9.52418C41.6479 9.66985 41.2963 9.17757 40.9296 8.22818ZM41.3114 16.185C41.3114 16.185 39.5482 16.7526 38.0915 16.7778C37.0265 16.7979 35.8913 16.5266 35.8913 16.5266C35.8913 16.5266 35.1026 16.3508 34.535 16.612C34.329 16.7074 34.1281 16.8832 33.9724 17.044C33.8769 16.6321 33.7313 15.9891 33.882 15.4767C33.9774 15.1251 33.9824 14.9694 34.6003 14.4118C35.2131 13.8492 35.831 13.7387 36.1274 13.6684C36.4237 13.588 37.1421 13.5679 38.3476 13.2213C39.5532 12.8797 39.8496 12.7139 39.8496 12.7139C39.8496 12.7139 40.0355 12.3121 40.3017 12.6637C40.4926 12.9149 41.2561 14.4721 41.7333 16.0896C41.4721 16.1398 41.3114 16.185 41.3114 16.185ZM35.6602 20.6256C34.962 20.6206 34.3642 20.6206 34.2939 20.6206C34.0226 20.6206 33.4701 20.6758 33.1184 20.8064C32.7718 20.942 32.5307 21.0475 32.3499 21.0174C32.154 20.9923 31.4055 20.7763 31.1744 20.6658C30.9333 20.5552 30.6369 20.505 30.4209 20.5301C30.21 20.5552 30.2401 20.5552 30.0995 20.6557L29.8583 20.8566C29.8583 20.8566 29.4364 20.5301 29.2204 20.5854C28.8537 20.6708 28.1504 20.6055 27.7787 20.6859C27.402 20.7662 26.4676 20.8416 26.0909 20.8667C25.7242 20.8968 25.1515 20.7512 24.6291 20.6457C24.0916 20.5352 23.745 20.5552 23.745 20.5552L23.7752 19.9424C23.8003 19.8068 23.8807 19.8068 23.8505 19.4903C23.8304 19.1638 23.7953 18.983 23.7752 18.5259C23.7551 18.0687 23.6697 17.7472 23.7249 17.4559C23.7802 17.1646 23.9108 16.4161 24.2423 15.2909C24.5588 14.1606 24.7798 13.4925 24.8903 13.2012C24.9958 12.9048 25.0511 12.5833 25.3424 12.6386C25.6438 12.6939 27.3517 13.1259 27.7787 13.1811C28.2057 13.2313 29.351 13.5629 30.1849 13.804C31.0036 14.0501 31.4055 14.4068 31.6717 14.5374C31.948 14.668 32.0435 14.668 32.0234 14.9443C31.9982 15.2105 31.9078 15.9841 31.8224 16.3608C31.7471 16.7325 31.9279 17.6217 31.9782 17.9683C32.0334 18.3149 32.4905 19.7716 32.4905 19.7716C32.4905 19.7716 32.7517 19.5255 32.9376 19.0985C33.1335 18.6665 33.1335 18.4304 33.3395 18.566C33.5605 18.7017 33.9623 19.0483 33.9623 19.0483C33.9623 19.0483 33.9824 18.9126 33.9623 18.7218C33.9422 18.6012 33.9975 18.0989 34.0176 17.7372C34.4647 18.2847 35.2985 19.4099 35.6602 20.6256ZM34.535 26.0959C34.535 26.0959 34.3089 26.4676 33.9573 27.0754C33.8669 26.5329 33.7463 25.9151 33.7564 25.8397C33.7865 25.694 33.7564 25.4077 33.7564 24.9556C33.7564 24.5035 33.9824 24.2725 34.1432 23.7952C34.3089 23.318 34.9921 23.0468 35.3337 22.8961C35.409 22.8659 35.5999 22.8006 35.7607 22.7554C35.4944 24.5337 34.535 26.0959 34.535 26.0959ZM31.3955 29.6674C30.9886 29.6825 30.5164 29.7779 29.9488 29.8483C28.8135 29.9839 28.4116 30.3908 27.7034 30.647C26.9951 30.9032 26.2818 31.2347 25.9452 31.2347L25.3123 31.2246C25.3123 31.2246 25.1666 30.8981 24.9556 30.4259C24.7396 29.9487 24.5337 29.2204 24.1821 28.2609C23.8355 27.3115 23.6697 27.2663 23.6898 26.6937C23.7199 26.1311 23.6446 25.7694 23.6797 25.3926C23.6948 25.0109 23.8204 24.8752 23.7049 24.6291C23.5793 24.393 23.5341 24.2473 23.4436 24.1871L23.2829 23.951L23.3331 23.6144C23.4788 23.4687 23.8204 23.2377 24.8903 22.9966C25.9502 22.7655 26.6234 22.8358 27.0403 22.7705C27.4673 22.7002 27.9847 22.6499 28.4368 22.66C28.8889 22.66 29.2857 22.8006 30.0442 22.8659C30.8027 22.9463 31.0338 23.1322 31.4055 23.2979C31.7923 23.4788 31.9078 23.6395 31.8877 23.8706C31.8576 24.1067 31.8877 29.5318 31.8877 29.5318C31.8877 29.5318 31.7822 29.6473 31.3955 29.6674ZM30.9785 33.465C30.0995 36.0771 30.3456 39.4326 30.441 40.372C30.4059 40.377 30.3757 40.3921 30.3406 40.3971C30.0342 40.4323 29.2606 40.156 28.3815 38.3778C28.1655 37.9156 27.5426 36.5694 27.0051 35.2433C26.4576 33.9071 26.1311 33.5102 26.1311 33.5102C26.1311 33.5102 25.9955 33.3394 26.2316 33.2239C26.4626 33.0983 27.7184 32.5659 27.9997 32.4252C28.2911 32.2846 28.8587 32.0233 29.1852 32.0032C29.5218 31.9781 30.22 32.0033 30.5566 32.0334C30.8831 32.0585 30.8781 31.8978 31.1744 32.159C31.1795 32.164 31.29 32.2243 31.4105 32.2896C31.2548 32.6864 31.1091 33.0732 30.9785 33.465ZM26.9348 39.6989C26.6836 39.6537 26.2014 39.6286 25.5685 39.4126C24.9305 39.1966 23.7953 38.4832 22.6198 37.6946C21.4394 36.911 20.6658 36.3182 20.6658 36.3182C20.6658 36.3182 20.1132 36.1776 20.5854 35.8661C21.0676 35.5597 22.9363 34.55 23.2427 34.4044C23.5491 34.2687 24.1168 33.9573 24.7999 34.8565C25.4831 35.7606 26.4224 37.8001 26.6987 38.423C26.985 39.0358 27.2915 39.6537 27.2915 39.6537C27.2915 39.6537 27.201 39.7441 26.9348 39.6989ZM22.9011 29.2555C22.6952 28.8486 22.6249 28.2609 22.4591 27.8591C22.2983 27.4572 22.1577 26.8594 22.1577 26.8594C22.1577 26.8594 22.017 26.2918 22.444 26.2918C22.866 26.2918 22.8459 26.4174 23.0368 26.6736C23.2126 26.9348 23.3382 27.2713 23.4286 27.3668V27.8842L23.303 28.3614C23.3783 28.5272 23.3231 28.4769 23.4236 28.7683C23.514 29.0546 23.6094 29.4012 23.7049 29.6473C23.8003 29.8885 23.8606 30.215 23.8405 30.431C23.8154 30.6369 23.745 30.9484 23.7199 31.2799C23.6948 31.6064 23.5742 31.9832 23.5742 31.9832C23.5742 31.9832 23.4436 31.7722 23.4436 31.4155C23.4436 31.0689 23.3934 30.7073 23.2477 30.4209C23.1171 30.1346 23.1171 29.6574 22.9011 29.2555ZM38.0262 5.74166C38.0262 5.74166 39.2769 7.16827 39.6738 8.36883C40.0706 9.57943 40.3369 9.84566 40.3369 9.84566C40.3369 9.84566 39.7542 9.9612 38.9555 8.33869C38.5536 7.53999 38.4029 6.73125 38.2673 6.39971C38.1266 6.08827 38.0262 5.74166 38.0262 5.74166ZM26.2316 10.0466C26.3973 9.29813 27.4924 6.10836 29.6976 3.67208C29.8885 3.46111 30.4712 3.05924 30.9836 3.02911C31.4859 3.00901 31.5662 3.67711 31.6667 3.89311C31.7722 4.10408 31.943 5.02334 31.8224 5.34483C31.7169 5.66632 31.5763 6.24901 31.5261 6.71115C31.4708 7.16827 31.6366 7.45459 31.7622 7.78111C31.9028 8.09757 32.0284 8.50948 32.2394 8.47934C32.4554 8.45422 32.7266 8.21311 32.9426 8.05236C33.1636 7.89664 33.666 7.52492 33.7212 6.90204C33.7765 6.28418 33.6459 5.93757 33.5655 5.59599C33.4851 5.24436 33.4851 4.97813 33.465 4.54111C33.4399 4.11915 33.5906 3.95841 33.5906 3.95841C33.5906 3.95841 33.5906 3.63692 33.8418 3.26017C34.0829 2.88343 34.4345 2.8332 34.6204 2.88343C34.8062 2.94371 35.4743 3.12957 36.4087 4.7119C36.5292 4.9279 37.127 6.05813 37.785 7.74594C37.9006 8.03729 38.1015 9.0319 38.4481 9.5945C38.7997 10.1621 39.1112 10.9106 39.1112 10.9106C39.1112 10.9106 37.78 11.4682 36.4137 11.654C36.0771 11.7043 35.0474 11.8148 34.5902 11.5385C34.1432 11.2723 34.113 10.8403 34.1432 10.6845L34.0075 10.0114C34.0075 9.85069 33.7463 9.05199 33.3746 8.67525C32.9929 8.2985 32.9929 8.50948 33.0782 8.70036C33.1536 8.89125 33.3093 9.9612 32.9125 9.98129L32.7266 9.79041C32.596 9.63469 32.3549 9.63469 32.1138 9.60455C31.8777 9.57943 31.8174 9.76529 31.8425 9.97627C31.8676 10.1872 31.8375 10.9709 31.8375 10.9709C31.8375 10.9709 31.8375 11.8047 30.7374 11.8248C29.6574 11.855 28.7181 11.3928 27.8089 11.1969C26.8996 11.006 26.4676 10.8001 26.4676 10.8001C26.4676 10.8001 26.0708 10.79 26.2316 10.0466ZM54.1207 18.6213C53.3622 14.2762 51.1017 10.5188 50.9158 10.2274C47.8014 5.44529 42.8636 3.26018 42.3612 3.07431C41.8589 2.88343 40.2314 1.80845 39.4829 1.50706C38.7344 1.20566 36.6799 0.914314 36.3283 0.939431C35.9817 0.964547 33.4751 0.929384 33.0983 0.929384C32.7216 0.924361 30.9584 0.929384 30.6068 0.964547C28.2609 1.2559 25.9904 2.21031 25.3525 2.40622C24.7045 2.58706 24.4734 2.57701 24.2725 2.66241C19.6762 4.65664 16.9938 8.00213 16.9938 8.00213C16.9938 8.00213 15.1603 10.5439 15.0347 10.7649C12.2418 15.5471 12.1765 19.8922 12.1162 20.721C12.0609 21.5499 12.1614 23.4788 12.1614 23.75C12.1614 24.0163 12.2368 26.2416 12.292 26.9951C12.3422 27.7435 12.5482 28.1253 12.9501 28.4719C13.3519 28.8135 14.226 29.572 14.226 29.572C14.226 29.572 14.4169 29.351 14.4972 29.14C14.5776 28.924 14.663 28.4518 14.6077 28.2057C14.5475 27.9646 14.5776 27.6682 14.5776 27.6682L14.9192 27.6179L14.7986 27.2713C14.6881 27.0805 14.7986 26.8645 14.7635 26.7339C14.7383 26.5982 14.4771 25.895 14.3214 25.0762C14.1607 24.2423 14.3264 23.8455 15.0196 23.3884C15.7179 22.9312 16.9988 22.9915 16.9988 22.9915C16.9988 22.9915 17.0289 22.9112 17.0289 22.7203C17.0289 22.5344 16.7929 22.238 16.6321 22.2029C16.4663 22.1828 16.4111 22.1526 16.175 22.0421C15.9389 21.9366 16.1197 21.7759 16.1197 21.7759C16.3609 21.7759 16.3106 21.5951 16.3106 21.5951L16.3357 21.1329C16.3357 21.1329 16.0494 21.1631 15.8033 21.0526C14.889 20.6406 14.6881 19.1136 14.7132 18.6364C14.7434 18.1541 15.0448 16.6421 15.095 16.3608C15.8083 12.5833 17.4911 10.4987 18.0035 10.0165C18.5108 9.5292 19.1488 9.9612 19.4753 10.0667C19.7917 10.1822 20.0278 10.1822 20.0278 10.1822C20.0278 10.1822 20.0831 9.96622 20.3292 9.77534C20.5653 9.5945 21.2887 9.35841 21.5649 9.22278C21.8262 9.08715 21.7508 8.93143 21.5901 8.79078C21.4343 8.65515 21.1129 8.39394 20.8366 8.30352C20.5804 8.22315 20.6557 8.03729 20.7612 7.87655L21.6955 6.86185C23.1222 5.48045 24.1871 5.04845 24.9657 4.67673C25.7393 4.29999 26.7088 4.01366 26.7088 4.01366L26.7188 4.89776L26.322 5.75171C25.5182 7.60027 23.9661 9.41366 23.9661 9.41366L23.082 9.4438C22.9514 9.4438 22.3084 9.35841 21.7458 9.64473C21.1832 9.94111 21.3439 10.6092 21.3439 10.6092L21.6102 10.8553L21.4795 11.0412C21.4795 11.0412 22.1979 11.0161 22.5194 11.1467C22.8358 11.2823 23.1021 11.9554 23.0719 12.2217C23.0468 12.4979 22.8007 13.7487 22.3737 15.1151C21.9367 16.4864 21.8513 17.8176 21.8764 18.5208C21.9065 19.214 21.9316 19.641 21.7156 20.1835C21.5047 20.711 20.7311 20.9571 20.1434 20.927C19.5506 20.8918 18.4857 20.9169 18.114 20.9722C17.7372 21.0224 18.0336 21.1329 18.0336 21.1329L18.0587 21.4042L18.2948 21.8312L18.0537 22.3084L17.9231 22.5244C18.4505 22.5545 18.6715 23.0166 18.6715 23.0166C18.6715 23.0166 18.9629 22.9564 19.3396 23.0166C19.7114 23.0669 20.8918 23.4386 21.2585 23.7149C21.6353 23.9861 21.8211 24.3579 21.7809 24.5538C21.7558 24.7296 21.8111 25.4127 21.7759 25.6739C21.5649 27.8892 22.2531 28.9391 22.5445 29.4766C22.8358 30.009 23.0518 30.9233 23.1222 31.7019C23.2025 32.4754 22.6701 32.5859 21.8965 33.0883C21.1179 33.5956 18.978 34.6606 18.978 34.6606C18.978 34.6606 18.556 34.6605 17.6267 33.5605C16.6874 32.4553 16.0544 30.441 16.0293 30.1949C16.0042 29.9588 16.0544 29.5871 15.5471 29.8734C15.0397 30.1647 15.2859 30.6319 15.3863 31.079C15.4918 31.5411 15.3863 31.7019 15.2256 31.7521C15.0598 31.8023 14.4771 30.9936 14.2109 30.8127C13.9346 30.6219 14.0351 31.0287 14.0502 31.2397C14.1255 32.6914 14.9995 33.7815 15.1854 34.0075C19.5255 39.1061 25.9553 41.5977 27.2161 42.0548C28.4669 42.5169 29.2907 42.4617 29.6976 42.4667L31.5813 42.4767L31.6014 42.5069L32.3097 42.6224L32.7819 42.3863L32.8572 41.8488C32.7065 41.4018 32.4604 40.6985 32.1389 39.8094C31.3251 37.569 32.2444 34.4245 32.385 33.9623C32.807 32.3599 33.6911 30.3305 35.2784 27.7335C36.9612 24.9858 37.5238 22.4842 36.9462 20.2991C36.6448 19.1588 36.0771 18.3048 35.5396 17.702C35.5648 17.7121 35.5949 17.7221 35.625 17.7322C36.3082 17.9934 37.2475 18.35 38.8349 18.1139C39.3824 18.0336 39.9551 17.918 40.5076 17.8025C43.7828 17.1394 46.8721 16.5115 48.6453 21.2736C49.0221 22.2883 49.218 23.3833 49.4289 24.5387C49.8057 26.6384 50.2879 29.0546 51.9506 31.1041L52.684 29.5419C52.9452 28.9742 53.0608 28.6326 53.1009 28.5473C54.2663 25.9954 54.1609 24.1268 54.0252 23.7752C53.8946 23.4336 54.1558 23.2176 54.3969 22.66C54.618 22.1074 54.1609 18.8323 54.1207 18.6213Z" fill="#9F9745"/>
<path d="M22.1073 46.2488C22.1073 46.2488 20.52 45.1839 19.1235 43.1495C18.1942 41.7982 17.6517 39.6583 16.6169 38.4376C15.0245 36.5589 13.2564 35.7954 13.2564 35.7954C13.2564 35.7954 13.9496 37.1467 14.683 39.1761C15.0697 40.241 15.4113 41.8936 15.7881 42.7878C16.2452 43.8828 16.7927 44.8373 16.7927 44.8373C16.7927 44.8373 14.6126 44.8875 11.9453 44.2094C9.28798 43.5362 6.11328 41.758 6.11328 41.758C6.11328 41.758 7.59514 45.6209 12.8193 46.9822C16.4612 47.9416 22.1073 46.2488 22.1073 46.2488Z" fill="#096939"/>
<path d="M14.3715 43.0394C14.3715 43.0394 13.4472 41.4319 12.8495 39.0509C12.4476 37.4384 12.2969 35.0423 11.7695 33.5605C11.0361 31.5009 9.92592 30.5767 9.92592 30.5767C9.92592 30.5767 10.1419 31.9581 10.1721 34.1482C10.1821 34.962 10.0515 36.042 10.0214 36.8859C9.98118 38.0412 10.4584 39.4327 10.4584 39.4327C10.4584 39.4327 9.78527 38.8851 8.6902 38.217C7.61522 37.564 6.12332 36.7904 5.02322 35.9968C3.08425 34.5953 1.67773 32.8221 1.67773 32.8221C1.67773 32.8221 2.4915 37.2124 5.95252 39.9099C10.1017 43.1348 14.3715 43.0394 14.3715 43.0394Z" fill="#096939"/>
<path d="M8.24823 36.5392C8.24823 36.5392 8.21809 35.2181 8.45921 33.3846C8.64004 31.9831 9.10218 30.24 9.08711 28.7481C9.05195 25.7342 8.09753 23.5591 8.09753 23.5591C8.09753 23.5591 7.92674 25.0761 7.43446 27.1507C7.2486 27.9243 6.77139 29.4112 6.63576 30.0742C6.4499 30.9985 6.38962 32.0132 6.38962 32.0132C6.38962 32.0132 5.79688 31.094 4.79223 30.1144C4.08897 29.4313 2.93362 28.301 2.34088 27.5877C0.607857 25.5081 4.32905e-05 24.3226 4.32905e-05 24.3226C4.32905e-05 24.3226 -0.0351195 27.7083 1.89883 30.5766C4.0739 33.7965 8.24823 36.5392 8.24823 36.5392Z" fill="#096939"/>
<path d="M3.87815 27.0604C4.82252 28.2459 5.32485 28.9793 5.32485 28.9793C5.32485 28.9793 5.62624 27.2614 6.36969 25.1616C6.87704 23.725 7.79127 22.1376 8.17304 20.696C8.73564 18.5762 8.5548 16.8783 8.5548 16.8783C8.5548 16.8783 6.99759 19.2342 5.81713 21.3088C4.95815 22.8108 4.48597 24.6342 4.48597 24.6342C4.48597 24.6342 3.85806 22.9062 3.0242 21.3289C2.5721 20.4699 1.83871 19.5356 1.46699 18.6867C0.859175 17.3153 0.763733 16.0444 0.763733 16.0444C0.763733 16.0444 -0.477012 19.0634 0.462337 21.7257C1.15052 23.6898 2.77303 25.679 3.87815 27.0604Z" fill="#096939"/>
<path d="M4.33042 20.9015C4.33042 20.9015 5.01358 19.7261 6.17396 18.2241C6.87219 17.3149 7.96223 16.3053 8.57005 15.2956C9.87107 13.1356 10.2227 11.1363 10.2227 11.1363C10.2227 11.1363 9.65005 11.8346 8.61023 12.7337C8.00744 13.2511 7.04298 13.8187 6.4653 14.4065C5.45563 15.4262 4.79256 16.6468 4.79256 16.6468C4.79256 16.6468 4.1747 14.6325 3.99386 12.8442C3.77786 10.7094 3.99386 8.74023 3.99386 8.74023C3.99386 8.74023 1.91423 10.9103 1.99963 13.869C2.03982 15.4061 2.90382 17.5711 3.4614 18.8269C4.02903 20.1229 4.33042 20.9015 4.33042 20.9015Z" fill="#096939"/>
<path d="M7.25864 12.3123C8.30348 11.4483 9.8858 10.4035 10.8704 9.27328C12.2919 7.63569 12.8093 5.58621 12.8093 5.58621C12.8093 5.58621 11.4681 6.94249 9.96115 7.9823C8.74552 8.82118 7.29883 9.38881 7.29883 9.38881C7.29883 9.38881 7.36413 8.77597 7.42943 7.52518C7.45957 6.94751 7.61027 4.85783 7.75092 4.21988C8.21808 2.11514 9.11724 1.14062 9.11724 1.14062C9.11724 1.14062 6.18366 3.44128 5.35483 6.36481C4.37027 9.83588 5.47036 14.0203 5.47036 14.0203C5.47036 14.0203 6.06813 13.2969 7.25864 12.3123Z" fill="#096939"/>
<path d="M11.9705 4.82735C12.5281 4.20949 13.2615 2.42623 13.6985 1.728C14.6127 0.271256 14.9744 0 14.9744 0C14.9744 0 12.1363 0.843907 10.5489 2.60205C8.94649 4.37526 8.58984 7.06772 8.58984 7.06772C8.58984 7.06772 10.5389 6.40967 11.9705 4.82735Z" fill="#096939"/>
<path d="M49.1775 48.5294C46.5654 48.3988 43.8428 47.9066 40.7183 46.9722C40.3064 46.8467 36.6545 45.8621 32.9222 46.7462C29.19 45.8621 25.5431 46.8517 25.1261 46.9722C22.0017 47.9066 19.2841 48.4039 16.672 48.5294C12.558 48.7354 10.3276 47.3138 10.3276 47.3138C10.3276 47.3138 12.5981 50.373 16.2551 50.9607C19.5353 51.4881 24.237 49.5542 24.237 49.5542C24.237 49.5542 27.2058 48.0522 30.1695 47.791C26.6984 49.6597 23.7297 53.0855 23.7297 53.0855L24.9101 53.9998C24.9101 53.9998 28.341 49.3382 32.9273 48.0121C37.5085 49.3382 40.9444 53.9998 40.9444 53.9998L42.1248 53.0855C42.1248 53.0855 39.1561 49.6597 35.685 47.791C38.6488 48.0522 41.6175 49.5542 41.6175 49.5542C41.6175 49.5542 46.3193 51.4881 49.5994 50.9607C53.2564 50.373 55.5269 47.3138 55.5269 47.3138C55.5269 47.3138 53.2865 48.7354 49.1775 48.5294Z" fill="#096939"/>
<path d="M60.8263 35.9914C59.7262 36.7851 58.2343 37.5586 57.1593 38.2117C56.0643 38.8798 55.3911 39.4273 55.3911 39.4273C55.3911 39.4273 55.8683 38.0358 55.8282 36.8805C55.798 36.0366 55.6674 34.9616 55.6775 34.1428C55.7076 31.9527 55.9236 30.5713 55.9236 30.5713C55.9236 30.5713 54.8135 31.4956 54.0801 33.5551C53.5526 35.037 53.3969 37.4331 53.0001 39.0455C52.4023 41.4265 51.478 43.034 51.478 43.034C51.478 43.034 55.7478 43.1244 59.897 39.8995C63.358 37.202 64.1718 32.8117 64.1718 32.8117C64.1718 32.8117 62.7653 34.5899 60.8263 35.9914Z" fill="#096939"/>
<path d="M63.9461 30.5764C65.88 27.7082 65.8449 24.3225 65.8449 24.3225C65.8449 24.3225 65.2371 25.508 63.5091 27.5926C62.9163 28.3059 61.761 29.4361 61.0577 30.1193C60.0581 31.0988 59.4603 32.0181 59.4603 32.0181C59.4603 32.0181 59.4 31.0034 59.2142 30.0791C59.0786 29.4161 58.6013 27.9242 58.4155 27.1556C57.9232 25.081 57.7524 23.564 57.7524 23.564C57.7524 23.564 56.798 25.739 56.7628 28.753C56.7427 30.2449 57.2099 31.9829 57.3907 33.3895C57.6268 35.2229 57.6017 36.5441 57.6017 36.5441C57.6017 36.5441 61.771 33.7963 63.9461 30.5764Z" fill="#096939"/>
<path d="M61.3641 24.629C61.3641 24.629 60.8919 22.8055 60.0329 21.3036C58.8524 19.234 57.2952 16.8731 57.2952 16.8731C57.2952 16.8731 57.1094 18.5709 57.677 20.6907C58.0588 22.1324 58.973 23.7198 59.4803 25.1564C60.2238 27.2561 60.5252 28.9741 60.5252 28.9741C60.5252 28.9741 61.0225 28.2407 61.9668 27.0552C63.072 25.6688 64.6945 23.6846 65.3877 21.7155C66.327 19.0582 65.0863 16.0342 65.0863 16.0342C65.0863 16.0342 64.9908 17.3 64.383 18.6764C64.0113 19.5203 63.2779 20.4597 62.8258 21.3186C61.992 22.901 61.3641 24.629 61.3641 24.629Z" fill="#096939"/>
<path d="M57.24 12.7337C56.2002 11.8396 55.6226 11.1363 55.6226 11.1363C55.6226 11.1363 55.9742 13.1356 57.2752 15.2956C57.883 16.3002 58.968 17.3099 59.6713 18.2241C60.8317 19.7311 61.5148 20.9015 61.5148 20.9015C61.5148 20.9015 61.8162 20.1229 62.3889 18.832C62.9465 17.5761 63.8105 15.4111 63.8507 13.869C63.936 10.9103 61.8564 8.74023 61.8564 8.74023C61.8564 8.74023 62.0724 10.7094 61.8564 12.8442C61.6756 14.6325 61.0577 16.6468 61.0577 16.6468C61.0577 16.6468 60.3947 15.4262 59.385 14.4014C58.8073 13.8137 57.8428 13.2511 57.24 12.7337Z" fill="#096939"/>
<path d="M58.4156 7.52484C58.4809 8.77563 58.5462 9.38846 58.5462 9.38846C58.5462 9.38846 57.1045 8.82084 55.8838 7.98195C54.3769 6.94214 53.0356 5.58586 53.0356 5.58586C53.0356 5.58586 53.553 7.63535 54.9746 9.27293C55.9592 10.4082 57.5415 11.453 58.5863 12.312C59.7769 13.2966 60.3746 14.0199 60.3746 14.0199C60.3746 14.0199 61.4697 9.83051 60.4902 6.35944C59.6613 3.4359 56.7277 1.13525 56.7277 1.13525C56.7277 1.13525 57.6319 2.10977 58.0941 4.21451C58.2347 4.85749 58.3854 6.94716 58.4156 7.52484Z" fill="#096939"/>
<path d="M52.1464 1.728C52.5834 2.42623 53.3168 4.20949 53.8744 4.82735C55.306 6.40967 57.26 7.06772 57.26 7.06772C57.26 7.06772 56.9034 4.37526 55.301 2.60205C53.7136 0.843907 50.8755 0 50.8755 0C50.8755 0 51.2321 0.271256 52.1464 1.728Z" fill="#096939"/>
<path d="M156.133 49.4588C155.962 49.3583 155.877 49.1021 155.877 48.6802C155.877 48.414 155.962 48.1578 156.128 47.9167C156.304 47.6655 156.51 47.5098 156.756 47.4495C156.781 48.424 156.791 48.9414 156.791 49.0067C156.791 49.2327 156.751 49.3834 156.67 49.4588H156.133ZM157.866 49.4588L157.851 47.7459C157.851 47.4696 157.871 47.2586 157.911 47.0979H157.921C158.303 47.0979 158.609 47.2084 158.85 47.4344C159.086 47.6554 159.207 47.9418 159.207 48.2984C159.207 48.635 159.102 48.9113 158.896 49.1222C158.69 49.3483 158.423 49.4588 158.102 49.4588H157.866ZM159.865 46.6558C159.348 46.1987 158.695 45.9726 157.916 45.9726C157.258 45.9726 156.932 46.1535 156.932 46.5101C156.932 46.5604 156.942 46.6257 156.957 46.701C156.309 46.7362 155.781 46.9321 155.379 47.2938C154.962 47.6605 154.756 48.1226 154.756 48.6802C154.756 48.9565 154.817 49.2177 154.942 49.4538H154.224V50.6041H158.167C158.941 50.6041 159.569 50.4082 160.041 50.0113C160.508 49.6246 160.739 49.1122 160.739 48.4793C160.734 47.766 160.443 47.1581 159.865 46.6558ZM152.722 51.1767C152.531 51.1767 152.375 51.242 152.24 51.3676C152.109 51.4932 152.044 51.654 152.044 51.8348C152.044 52.0006 152.099 52.1412 152.205 52.2467C152.31 52.3522 152.451 52.4024 152.622 52.4024C152.822 52.4024 152.988 52.3371 153.124 52.2115C153.254 52.0809 153.32 51.9252 153.32 51.7293C153.32 51.5686 153.265 51.438 153.154 51.3325C153.049 51.227 152.903 51.1767 152.722 51.1767ZM151.125 51.1767C150.934 51.1767 150.773 51.242 150.637 51.3676C150.507 51.4932 150.441 51.654 150.441 51.8348C150.441 52.0006 150.497 52.1412 150.602 52.2467C150.708 52.3522 150.848 52.4024 151.014 52.4024C151.215 52.4024 151.386 52.3371 151.521 52.2115C151.652 52.0809 151.717 51.9252 151.717 51.7293C151.717 51.5686 151.662 51.438 151.552 51.3325C151.436 51.227 151.295 51.1767 151.125 51.1767ZM154.43 50.6091V49.4588H152.913C152.807 49.4588 152.717 49.4035 152.637 49.293C152.546 49.1725 152.501 49.0218 152.491 48.8409L152.476 47.3691C152.476 46.8567 152.531 46.5152 152.637 46.3393C152.385 46.1384 152.084 46.038 151.737 46.038C151.537 46.038 151.376 46.0932 151.26 46.2087C151.145 46.3243 151.084 46.485 151.084 46.6809C151.084 46.8266 151.089 47.1632 151.105 47.6906C151.125 48.3487 151.13 48.7153 151.13 48.7957C151.13 49.0318 151.1 49.2026 151.034 49.3031C150.969 49.4086 150.858 49.4588 150.698 49.4588H149.814V50.6091H151.421C151.778 50.6091 152.049 50.5087 152.23 50.3077C152.37 50.5087 152.596 50.6091 152.913 50.6091H154.43V50.6091ZM150.03 50.6091V49.4588H148.513C148.412 49.4588 148.317 49.4035 148.236 49.293C148.146 49.1725 148.101 49.0218 148.091 48.8409L148.076 47.3691C148.076 46.8567 148.131 46.5152 148.236 46.3393C147.985 46.1384 147.684 46.038 147.332 46.038C147.131 46.038 146.97 46.0932 146.86 46.2087C146.744 46.3243 146.684 46.485 146.684 46.6809C146.684 46.8266 146.689 47.1632 146.704 47.6906C146.724 48.3487 146.729 48.7153 146.729 48.7957C146.729 49.0318 146.699 49.2026 146.634 49.3031C146.569 49.4086 146.458 49.4588 146.297 49.4588H145.413V50.6091H147.021C147.377 50.6091 147.649 50.5087 147.829 50.3077C147.97 50.5087 148.196 50.6091 148.513 50.6091H150.03V50.6091ZM148.101 45.3146C148.166 45.3196 148.226 45.3498 148.271 45.395C148.342 45.3046 148.377 45.179 148.377 45.0283C148.377 44.8927 148.286 44.8223 148.101 44.8223H147.503C147.257 44.7771 147.136 44.6314 147.136 44.3903C147.136 44.2647 147.176 44.1643 147.252 44.0889C147.322 44.0086 147.417 43.9684 147.538 43.9684C147.593 43.9684 147.659 43.9784 147.724 43.9985V44.0086C147.739 44.0638 147.734 44.114 147.719 44.1593C147.699 44.1994 147.679 44.2246 147.644 44.2246C147.724 44.2798 147.834 44.3049 147.97 44.3049C148.131 44.3049 148.216 44.2246 148.231 44.0688C148.241 43.9282 148.211 43.8177 148.136 43.7373C148 43.6017 147.794 43.5364 147.523 43.5364C147.237 43.5364 147.006 43.6067 146.83 43.7473C146.654 43.893 146.569 44.0839 146.569 44.32C146.569 44.5008 146.624 44.6666 146.734 44.8223H146.418C146.358 44.8173 146.307 44.7922 146.262 44.747C146.192 44.8374 146.157 44.9379 146.157 45.0333C146.157 45.1036 146.182 45.1689 146.227 45.2192C146.277 45.2794 146.337 45.3096 146.413 45.3146H148.101V45.3146ZM142.806 49.4588C142.198 49.4588 141.892 49.1674 141.892 48.5847C141.892 48.2733 142.022 47.9568 142.294 47.6353C142.565 47.3088 142.861 47.1029 143.193 47.0275L143.243 48.9816C143.238 49.298 143.092 49.4588 142.806 49.4588ZM145.654 50.6091V49.4588H145.031C144.926 49.4538 144.83 49.3935 144.745 49.2729C144.655 49.1473 144.604 48.9816 144.604 48.7857C144.604 48.7656 144.604 48.7505 144.599 48.7354L144.589 47.2938C144.589 46.8065 144.645 46.48 144.75 46.3092C144.499 46.1183 144.198 46.0279 143.846 46.0279C142.846 45.9978 142.068 46.2238 141.505 46.696C140.953 47.1431 140.661 47.776 140.636 48.5948C140.616 49.1524 140.787 49.6246 141.153 50.0013C141.55 50.4082 142.078 50.6091 142.751 50.6091H143.263C143.7 50.6091 144.047 50.4886 144.303 50.2424C144.439 50.4835 144.68 50.6041 145.036 50.6091H145.654V50.6091ZM144.072 45.3247C144.273 45.3247 144.439 45.2593 144.574 45.1287C144.705 45.0032 144.77 44.8424 144.77 44.6465C144.77 44.4908 144.715 44.3602 144.604 44.2497C144.489 44.1442 144.348 44.0889 144.172 44.0889C143.982 44.0889 143.826 44.1542 143.69 44.2798C143.555 44.4104 143.489 44.5661 143.489 44.752C143.489 44.9178 143.545 45.0584 143.65 45.1639C143.761 45.2694 143.901 45.3247 144.072 45.3247ZM142.454 45.3247C142.655 45.3247 142.826 45.2593 142.962 45.1287C143.092 45.0032 143.158 44.8424 143.158 44.6465C143.158 44.4908 143.102 44.3602 142.992 44.2497C142.876 44.1442 142.736 44.0889 142.56 44.0889C142.369 44.0889 142.208 44.1542 142.073 44.2798C141.942 44.4104 141.877 44.5661 141.877 44.752C141.877 44.9178 141.932 45.0584 142.038 45.1639C142.143 45.2694 142.284 45.3247 142.454 45.3247ZM137.677 44.5561C137.677 44.0387 137.733 43.6971 137.838 43.5213C137.587 43.3204 137.291 43.2199 136.944 43.2199C136.738 43.2199 136.577 43.2802 136.457 43.3957C136.341 43.5113 136.281 43.672 136.281 43.8679C136.281 44.0688 136.291 44.963 136.316 46.5503L136.346 49.2679C136.346 49.7803 136.291 50.1269 136.185 50.3027C136.437 50.5036 136.738 50.6041 137.085 50.6041C137.286 50.6041 137.446 50.5438 137.567 50.4283C137.682 50.3127 137.743 50.152 137.743 49.9561L137.713 47.2737C137.692 45.6813 137.677 44.7771 137.677 44.5561ZM131.725 52.4225C131.479 52.3823 131.353 52.2316 131.353 51.9855C131.353 51.8649 131.388 51.7645 131.464 51.6891C131.544 51.6087 131.644 51.5736 131.765 51.5736C131.81 51.5736 131.876 51.5836 131.951 51.5987V51.6087C131.961 51.664 131.956 51.7193 131.936 51.7645C131.916 51.8047 131.896 51.8247 131.87 51.8247C131.951 51.88 132.056 51.9101 132.192 51.9101C132.358 51.9101 132.443 51.8298 132.458 51.669C132.473 51.5284 132.438 51.4179 132.358 51.3375C132.227 51.1968 132.021 51.1265 131.745 51.1265C131.459 51.1265 131.222 51.2019 131.047 51.3475C130.871 51.4932 130.785 51.6841 130.785 51.9202C130.785 52.101 130.841 52.2668 130.951 52.4225H130.635C130.58 52.4175 130.524 52.3974 130.479 52.3522C130.409 52.4426 130.374 52.5431 130.374 52.6385C130.374 52.7088 130.399 52.7691 130.444 52.8244C130.494 52.8847 130.554 52.9198 130.63 52.9248V52.9299L132.333 52.9248C132.393 52.9299 132.448 52.955 132.498 53.0002C132.569 52.9098 132.604 52.7842 132.604 52.6335C132.604 52.4979 132.513 52.4275 132.333 52.4225H131.725V52.4225ZM135.512 43.5364C135.266 43.3405 134.965 43.245 134.608 43.245C134.407 43.245 134.246 43.3053 134.126 43.4208C134.01 43.5364 133.95 43.6921 133.95 43.883C133.95 44.1341 133.955 44.9379 133.97 46.2941L133.995 48.8007C133.995 49.0368 133.965 49.2026 133.905 49.3031C133.835 49.4086 133.724 49.4588 133.568 49.4588H132.368L132.308 45.6411C132.308 45.1287 132.363 44.7872 132.468 44.6113C132.227 44.4154 131.926 44.32 131.564 44.32C131.363 44.32 131.202 44.3753 131.077 44.4908C130.961 44.6113 130.906 44.7721 130.906 44.968C130.906 45.1388 130.916 45.827 130.941 47.0326C130.961 48.3235 130.971 49.0268 130.971 49.1373C130.971 49.2177 130.966 49.3282 130.961 49.4638H130.173C130.007 49.4588 129.856 49.3935 129.716 49.2679C129.525 49.5191 129.434 49.7753 129.434 50.0465C129.434 50.3981 129.68 50.589 130.178 50.6141H134.287C135 50.6141 135.357 50.2223 135.357 49.4337L135.337 44.5762C135.347 44.0538 135.402 43.7122 135.512 43.5364ZM126.651 49.4588C126.35 49.4035 126.109 49.2729 125.928 49.062C125.742 48.851 125.652 48.5948 125.652 48.2884C125.652 47.9568 125.757 47.6856 125.963 47.4796C126.169 47.2737 126.435 47.1682 126.757 47.1682C126.918 47.1682 127.088 47.1983 127.264 47.2536V47.2687C127.294 47.4193 127.284 47.56 127.239 47.6806C127.189 47.7961 127.124 47.8513 127.048 47.8513C127.264 47.997 127.556 48.0724 127.922 48.0724C128.354 48.0724 128.585 47.8564 128.625 47.4294C128.661 47.0476 128.575 46.7563 128.369 46.5503C127.993 46.1786 127.435 45.9978 126.707 45.9978C125.928 45.9978 125.305 46.1937 124.833 46.5805C124.366 46.9673 124.135 47.4796 124.135 48.1126C124.135 48.6099 124.28 49.0569 124.572 49.4688H123.125V50.6192H128.274C128.445 50.6242 128.595 50.6945 128.731 50.8151C128.922 50.5639 129.017 50.3027 129.017 50.0365C129.017 49.6848 128.766 49.494 128.269 49.4638H126.651V49.4588ZM126.285 45.39C126.481 45.39 126.646 45.3247 126.777 45.1991C126.913 45.0685 126.978 44.9077 126.978 44.7168C126.978 44.5611 126.923 44.4305 126.812 44.32C126.697 44.2145 126.556 44.1593 126.385 44.1593C126.194 44.1593 126.038 44.2246 125.903 44.3501C125.772 44.4757 125.707 44.6365 125.707 44.8173C125.707 44.9831 125.762 45.1237 125.868 45.2292C125.968 45.3397 126.109 45.39 126.285 45.39ZM123.436 50.6091V49.4588H122.281C122.12 49.4588 122.01 49.4086 121.945 49.3031C121.879 49.2026 121.849 49.0368 121.849 48.8007L121.859 44.5561C121.859 44.0387 121.914 43.6971 122.02 43.5213C121.769 43.3204 121.467 43.2199 121.121 43.2199C120.92 43.2199 120.759 43.2802 120.638 43.3957C120.523 43.5113 120.463 43.672 120.463 43.8679L120.488 46.3594C120.483 47.2084 120.483 48.2331 120.483 49.4287C120.483 50.2173 120.839 50.6091 121.563 50.6091H123.436V50.6091ZM118.127 46.0279C117.926 46.0279 117.765 46.0882 117.645 46.2037C117.529 46.3193 117.469 46.48 117.469 46.6809C117.469 46.8266 117.474 47.1632 117.489 47.6956C117.509 48.3537 117.514 48.7204 117.514 48.8007C117.514 49.0368 117.484 49.2076 117.419 49.3081C117.353 49.4136 117.243 49.4638 117.082 49.4638H116.193V50.6141H117.805C118.524 50.6141 118.88 50.2223 118.88 49.4387L118.865 47.3641C118.865 46.8467 118.921 46.5051 119.026 46.3293C118.775 46.1284 118.473 46.0279 118.127 46.0279ZM118.996 45.3297C119.197 45.3297 119.363 45.2644 119.498 45.1388C119.634 45.0082 119.699 44.8525 119.699 44.6666C119.699 44.5059 119.644 44.3753 119.528 44.2698C119.418 44.1593 119.277 44.104 119.101 44.104C118.91 44.104 118.75 44.1693 118.614 44.2999C118.484 44.4255 118.418 44.5862 118.418 44.7671C118.418 44.9328 118.473 45.0685 118.579 45.174C118.684 45.2744 118.825 45.3297 118.996 45.3297ZM117.383 45.3297C117.584 45.3297 117.755 45.2644 117.891 45.1388C118.021 45.0082 118.087 44.8525 118.087 44.6666C118.087 44.5059 118.031 44.3753 117.916 44.2647C117.805 44.1593 117.665 44.104 117.489 44.104C117.298 44.104 117.137 44.1693 117.002 44.2999C116.871 44.4255 116.806 44.5862 116.806 44.7671C116.806 44.9328 116.861 45.0685 116.966 45.174C117.077 45.2744 117.213 45.3297 117.383 45.3297ZM118.262 43.8629C118.463 43.8629 118.629 43.7976 118.765 43.672C118.9 43.5464 118.966 43.3857 118.966 43.1948C118.966 43.0391 118.91 42.9085 118.795 42.798C118.679 42.6925 118.539 42.6372 118.368 42.6372C118.177 42.6372 118.021 42.7025 117.886 42.8281C117.755 42.9587 117.69 43.1144 117.69 43.3003C117.69 43.461 117.745 43.5967 117.851 43.7021C117.956 43.8076 118.092 43.8629 118.262 43.8629ZM113.586 49.4588C112.978 49.4588 112.672 49.1674 112.672 48.5847C112.672 48.2733 112.807 47.9568 113.073 47.6353C113.345 47.3088 113.641 47.1029 113.968 47.0275L114.018 48.9816C114.018 49.298 113.872 49.4588 113.586 49.4588ZM116.434 50.6091V49.4588H115.811C115.706 49.4538 115.61 49.3935 115.525 49.2729C115.434 49.1473 115.384 48.9816 115.384 48.7857C115.384 48.7656 115.384 48.7505 115.379 48.7354L115.369 47.2938C115.369 46.8065 115.424 46.48 115.53 46.3092C115.279 46.1183 114.977 46.0279 114.626 46.0279C113.626 45.9978 112.847 46.2238 112.285 46.696C111.727 47.1431 111.441 47.776 111.416 48.5948C111.396 49.1524 111.566 49.6246 111.933 50.0013C112.33 50.4082 112.857 50.6091 113.531 50.6091H114.043C114.48 50.6091 114.827 50.4886 115.083 50.2424C115.218 50.4835 115.46 50.6041 115.811 50.6091H116.434V50.6091ZM114.852 45.3247C115.053 45.3247 115.218 45.2593 115.354 45.1287C115.485 45.0032 115.55 44.8424 115.55 44.6465C115.55 44.4908 115.495 44.3602 115.384 44.2497C115.269 44.1442 115.128 44.0889 114.952 44.0889C114.761 44.0889 114.606 44.1542 114.475 44.2798C114.339 44.4104 114.274 44.5661 114.274 44.752C114.274 44.9178 114.329 45.0584 114.435 45.1639C114.54 45.2694 114.681 45.3247 114.852 45.3247ZM113.234 45.3247C113.435 45.3247 113.606 45.2593 113.742 45.1287C113.872 45.0032 113.937 44.8424 113.937 44.6465C113.937 44.4908 113.882 44.3602 113.772 44.2497C113.656 44.1442 113.516 44.0889 113.34 44.0889C113.149 44.0889 112.988 44.1542 112.852 44.2798C112.722 44.4104 112.657 44.5661 112.657 44.752C112.657 44.9178 112.712 45.0584 112.817 45.1639C112.923 45.2694 113.063 45.3247 113.234 45.3247ZM108.457 44.5561C108.457 44.0387 108.512 43.6971 108.618 43.5213C108.367 43.3204 108.07 43.2199 107.719 43.2199C107.513 43.2199 107.352 43.2802 107.231 43.3957C107.116 43.5113 107.056 43.672 107.056 43.8679C107.056 44.0688 107.071 44.963 107.096 46.5503L107.126 49.2679C107.126 49.7803 107.071 50.1269 106.965 50.3027C107.216 50.5036 107.518 50.6041 107.869 50.6041C108.07 50.6041 108.231 50.5438 108.347 50.4283C108.462 50.3127 108.522 50.152 108.522 49.9561L108.492 47.2737C108.472 45.6813 108.457 44.7771 108.457 44.5561ZM102.505 52.4225C102.253 52.3823 102.133 52.2316 102.133 51.9855C102.133 51.8649 102.168 51.7645 102.243 51.6891C102.319 51.6087 102.424 51.5736 102.55 51.5736C102.595 51.5736 102.66 51.5836 102.736 51.5987V51.6087C102.746 51.664 102.741 51.7193 102.721 51.7645C102.7 51.8047 102.68 51.8247 102.655 51.8247C102.736 51.88 102.841 51.9101 102.977 51.9101C103.137 51.9101 103.228 51.8298 103.243 51.669C103.258 51.5284 103.223 51.4179 103.142 51.3375C103.012 51.1968 102.806 51.1265 102.53 51.1265C102.243 51.1265 102.007 51.2019 101.831 51.3475C101.656 51.4932 101.57 51.6841 101.57 51.9202C101.57 52.101 101.625 52.2668 101.736 52.4225H101.42C101.364 52.4175 101.309 52.3974 101.264 52.3522C101.193 52.4426 101.158 52.5431 101.158 52.6385C101.158 52.7088 101.183 52.7691 101.229 52.8244C101.279 52.8847 101.339 52.9198 101.414 52.9248V52.9299L103.117 52.9248C103.178 52.9299 103.233 52.955 103.283 53.0002C103.353 52.9098 103.389 52.7842 103.389 52.6335C103.389 52.4979 103.298 52.4275 103.117 52.4225H102.505V52.4225ZM106.292 43.5364C106.041 43.3405 105.745 43.245 105.393 43.245C105.192 43.245 105.031 43.3053 104.911 43.4208C104.795 43.5364 104.735 43.6921 104.735 43.883C104.735 44.1341 104.74 44.9379 104.755 46.2941L104.78 48.8007C104.78 49.0368 104.75 49.2026 104.69 49.3031C104.624 49.4086 104.509 49.4588 104.353 49.4588H103.153L103.092 45.6411C103.092 45.1287 103.148 44.7872 103.253 44.6113C103.012 44.4154 102.71 44.32 102.349 44.32C102.148 44.32 101.987 44.3753 101.862 44.4908C101.746 44.6113 101.691 44.7721 101.691 44.968C101.691 45.1388 101.701 45.827 101.726 47.0326C101.746 48.3235 101.756 49.0268 101.756 49.1373C101.756 49.2177 101.751 49.3282 101.746 49.4638H100.967C100.802 49.4588 100.651 49.3935 100.51 49.2679C100.319 49.5191 100.229 49.7753 100.229 50.0465C100.229 50.3981 100.475 50.589 100.972 50.6141H105.081C105.795 50.6141 106.156 50.2223 106.156 49.4337L106.136 44.5762C106.126 44.0538 106.182 43.7122 106.292 43.5364ZM99.797 46.3293C99.5559 46.1334 99.2545 46.038 98.8978 46.038C98.6969 46.038 98.5362 46.0982 98.4206 46.2138C98.3051 46.3293 98.2448 46.485 98.2448 46.6809C98.2448 46.8266 98.2498 47.1632 98.2649 47.6906C98.285 48.3487 98.29 48.7204 98.29 48.8007C98.29 49.0368 98.2599 49.2026 98.1946 49.3031C98.1293 49.4035 98.0188 49.4538 97.858 49.4588H96.9739V50.6091H98.5814C99.2947 50.6091 99.6563 50.2173 99.6563 49.4337L99.6413 47.3641C99.6363 46.8517 99.6865 46.5051 99.797 46.3293ZM98.9079 45.0936C99.1088 45.0936 99.2746 45.0283 99.4102 44.9027C99.5408 44.7721 99.6061 44.6113 99.6061 44.4205C99.6061 44.2647 99.5509 44.1341 99.4404 44.0236C99.3248 43.9181 99.1842 43.8629 99.0134 43.8629C98.8225 43.8629 98.6617 43.9282 98.5311 44.0538C98.4005 44.1844 98.3352 44.3401 98.3352 44.5209C98.3352 44.6867 98.3905 44.8273 98.496 44.9328C98.6015 45.0433 98.7371 45.0936 98.9079 45.0936ZM97.1849 50.6091V49.4588H96.567C96.4666 49.4588 96.3711 49.3985 96.2857 49.283C96.1953 49.1524 96.1451 48.9916 96.1451 48.7957C96.1451 48.7706 96.1401 48.7455 96.135 48.7154C96.125 48.0523 96.12 47.6605 96.12 47.5399C96.12 46.912 96.1752 46.5152 96.2807 46.3393C96.0647 46.1434 95.7382 46.043 95.3062 46.043C94.9244 46.043 94.7336 46.259 94.7336 46.686L94.7587 47.6956C94.7737 48.2281 94.7788 48.5948 94.7788 48.8058C94.7788 49.0419 94.7486 49.2076 94.6883 49.3081C94.623 49.4086 94.5075 49.4588 94.3518 49.4588C94.1509 49.4588 94.0102 49.4387 93.9298 49.3935C93.8143 49.3332 93.749 49.2127 93.739 49.0318L93.7239 47.5449C93.7239 47.0979 93.7791 46.7864 93.8846 46.6106C93.6686 46.4197 93.3421 46.3243 92.9051 46.3243C92.5283 46.3243 92.3425 46.5353 92.3425 46.9572L92.3676 47.8313C92.3827 48.2833 92.3877 48.6099 92.3877 48.8058C92.3877 49.0419 92.3576 49.2076 92.2973 49.3081C92.232 49.4086 92.1215 49.4588 91.9607 49.4588C91.7698 49.4588 91.6342 49.4387 91.5488 49.3985C91.4333 49.3433 91.368 49.2378 91.3479 49.072L91.3378 48.4441C91.3328 48.2381 91.3328 48.0272 91.3328 47.8162C91.3328 47.4193 91.3881 47.138 91.4936 46.9673C91.2524 46.7663 90.951 46.6659 90.5994 46.6659C90.3985 46.6659 90.2377 46.7211 90.1172 46.8366C90.0016 46.9522 89.9414 47.1129 89.9414 47.3139C89.9414 47.3892 89.9514 47.6253 89.9715 48.0071C89.9916 48.4391 89.9966 48.7103 89.9966 48.8058C89.9966 49.0419 89.9665 49.2076 89.9012 49.3081C89.8359 49.4086 89.7254 49.4588 89.5646 49.4588H88.5951V50.6091H90.283C90.6999 50.6091 91.0013 50.3931 91.1972 49.9661C91.4684 50.3981 91.9657 50.6091 92.6841 50.6091C93.1663 50.6091 93.4878 50.4182 93.6435 50.0365C93.9198 50.4182 94.402 50.6091 95.0802 50.6091C95.4569 50.6091 95.7382 50.4936 95.919 50.2575C96.0798 50.4936 96.2958 50.6091 96.5771 50.6091H97.1849V50.6091ZM88.9066 50.6091V49.4588H87.7512C87.5905 49.4588 87.48 49.4086 87.4147 49.3031C87.3494 49.2026 87.3192 49.0368 87.3192 48.8007L87.3293 44.5561C87.3293 44.0387 87.3845 43.6971 87.49 43.5213C87.2389 43.3204 86.9375 43.2199 86.5858 43.2199C86.3849 43.2199 86.2242 43.2802 86.1086 43.3957C85.9931 43.5113 85.9328 43.672 85.9328 43.8679L85.9579 46.3594C85.9529 47.2084 85.9529 48.2331 85.9529 49.4287C85.9529 50.2173 86.3096 50.6091 87.0329 50.6091H88.9066V50.6091ZM85.1643 46.3293C84.9231 46.1334 84.6217 46.038 84.2601 46.038C84.0591 46.038 83.8984 46.0982 83.7829 46.2138C83.6673 46.3293 83.607 46.485 83.607 46.6809C83.607 46.8266 83.6121 47.1632 83.6271 47.6906C83.6472 48.3487 83.6523 48.7204 83.6523 48.8007C83.6523 49.0368 83.6221 49.2026 83.5568 49.3031C83.4915 49.4035 83.381 49.4538 83.2203 49.4588H82.3362V50.6091H83.9436C84.6569 50.6091 85.0136 50.2173 85.0136 49.4337L84.9985 47.3641C85.0035 46.8517 85.0588 46.5051 85.1643 46.3293ZM84.2802 45.0936C84.4811 45.0936 84.6469 45.0283 84.7825 44.9027C84.9131 44.7721 84.9784 44.6113 84.9784 44.4205C84.9784 44.2647 84.9231 44.1341 84.8126 44.0236C84.6971 43.9181 84.5564 43.8629 84.3857 43.8629C84.1948 43.8629 84.034 43.9282 83.9034 44.0538C83.7728 44.1844 83.7075 44.3401 83.7075 44.5209C83.7075 44.6867 83.7628 44.8273 83.8683 44.9328C83.9737 45.0433 84.1094 45.0936 84.2802 45.0936ZM80.8493 51.1767C80.6584 51.1767 80.5027 51.242 80.367 51.3676C80.2364 51.4932 80.1711 51.654 80.1711 51.8348C80.1711 52.0006 80.2264 52.1412 80.3319 52.2467C80.4374 52.3522 80.578 52.4024 80.7488 52.4024C80.9497 52.4024 81.1155 52.3371 81.2511 52.2115C81.3817 52.0809 81.447 51.9252 81.447 51.7293C81.447 51.5686 81.3918 51.438 81.2813 51.3325C81.1708 51.227 81.0251 51.1767 80.8493 51.1767ZM79.2469 51.1767C79.056 51.1767 78.8952 51.242 78.7596 51.3676C78.629 51.4932 78.5637 51.654 78.5637 51.8348C78.5637 52.0006 78.619 52.1412 78.7244 52.2467C78.8299 52.3522 78.9656 52.4024 79.1363 52.4024C79.3373 52.4024 79.5081 52.3371 79.6437 52.2115C79.7743 52.0809 79.8396 51.9252 79.8396 51.7293C79.8396 51.5686 79.7843 51.438 79.6738 51.3325C79.5633 51.227 79.4176 51.1767 79.2469 51.1767ZM82.5572 50.6091V49.4588H81.0402C80.9397 49.4588 80.8443 49.4035 80.7639 49.293C80.6735 49.1725 80.6283 49.0218 80.6182 48.8409L80.6031 47.3691C80.6031 46.8567 80.6584 46.5152 80.7639 46.3393C80.5127 46.1384 80.2113 46.038 79.8647 46.038C79.6638 46.038 79.503 46.0932 79.3875 46.2087C79.272 46.3243 79.2117 46.485 79.2117 46.6809C79.2117 46.8266 79.2167 47.1632 79.2318 47.6906C79.2519 48.3487 79.2569 48.7153 79.2569 48.7957C79.2569 49.0318 79.2268 49.2026 79.1615 49.3031C79.0962 49.4086 78.9857 49.4588 78.8249 49.4588H77.9408V50.6091H79.5483C79.9049 50.6091 80.1762 50.5087 80.362 50.3077C80.5027 50.5087 80.7287 50.6091 81.0452 50.6091H82.5572V50.6091ZM75.3337 49.4588C74.7259 49.4588 74.4195 49.1674 74.4195 48.5847C74.4195 48.2733 74.5551 47.9568 74.8214 47.6353C75.0926 47.3088 75.389 47.1029 75.7155 47.0275L75.7657 48.9816C75.7657 49.298 75.6201 49.4588 75.3337 49.4588ZM78.1819 50.6091V49.4588H77.559C77.4536 49.4538 77.3581 49.3935 77.2727 49.2729C77.1823 49.1473 77.1321 48.9816 77.1321 48.7857C77.1321 48.7656 77.1321 48.7505 77.127 48.7354L77.117 47.2938C77.117 46.8065 77.1723 46.48 77.2777 46.3092C77.0266 46.1183 76.7252 46.0279 76.3736 46.0279C75.3739 45.9978 74.5953 46.2238 74.0327 46.696C73.4802 47.1431 73.1888 47.776 73.1637 48.5948C73.1436 49.1524 73.3144 49.6246 73.6811 50.0013C74.0729 50.4082 74.6054 50.6091 75.2735 50.6091H75.7858C76.2229 50.6091 76.5695 50.4886 76.8257 50.2424C76.9613 50.4835 77.2024 50.6041 77.554 50.6091H78.1819V50.6091ZM76.5996 45.3247C76.8005 45.3247 76.9663 45.2593 77.1019 45.1287C77.2325 45.0032 77.2978 44.8424 77.2978 44.6465C77.2978 44.4908 77.2426 44.3602 77.1321 44.2497C77.0165 44.1442 76.8759 44.0889 76.7001 44.0889C76.5092 44.0889 76.3535 44.1542 76.2178 44.2798C76.0822 44.4104 76.0169 44.5661 76.0169 44.752C76.0169 44.9178 76.0722 45.0584 76.1776 45.1639C76.2882 45.2694 76.4288 45.3247 76.5996 45.3247ZM74.9821 45.3247C75.183 45.3247 75.3538 45.2593 75.4895 45.1287C75.6201 45.0032 75.6854 44.8424 75.6854 44.6465C75.6854 44.4908 75.6301 44.3602 75.5196 44.2497C75.4041 44.1442 75.2634 44.0889 75.0876 44.0889C74.8967 44.0889 74.736 44.1542 74.6003 44.2798C74.4697 44.4104 74.4044 44.5661 74.4044 44.752C74.4044 44.9178 74.4597 45.0584 74.5652 45.1639C74.6707 45.2694 74.8113 45.3247 74.9821 45.3247Z" fill="#9F9745"/>
</svg>
